<svg xmlns="http://www.w3.org/2000/svg" viewBox="0 0 38 38" shape-rendering="crispEdges"><path fill="#ff9aa3" d="M0 0h38v38H0"/><path fill="#ffb7b2" d="M18 0h20v38H18M17 1h1v37h-1M16 2h1v36h-1M5 13h11v25H5M4 14h1v24H4M3 15h1v23H3M2 16h1v22H2M1 17h1v21H1M0 18h1v20H0"/><path fill="#ffdac0" d="M26 0h12v38H26M25 1h1v37h-1M24 2h1v36h-1M23 3h1v35h-1M6 20h17v18H6M5 21h1v17H5M4 22h1v16H4M3 23h1v15H3M2 24h1v14H2M1 25h1v13H1M0 26h1v12H0"/><path fill="#ffe9f1" d="M15 3h7v35h-7M11 4h4v34h-4M22 4h5v34h-5M10 5h1v33h-1M27 5h1v33h-1M9 6h1v32H9M28 6h10v32H28"/><path fill="#e3f0cb" d="M34 0h4v38h-4M33 1h1v37h-1M32 2h1v36h-1M31 3h1v35h-1M30 4h1v34h-1M29 5h1v33h-1M27 11h1v4h-1m1-7h1v30h-1M8 26h20v12H8M7 27h1v11H7M6 28h1v10H6M4 30h1v8H4m1-9h1v9H5M2 32h1v6H2m1-7h1v7H3M0 34h1v4H0m1-5h1v5H1"/><path fill="#f5a6c4" d="M15 4h7v34h-7M11 5h4v24h-4M10 6h1v9h-1M22 5h5v6h-5m5-5h1v2h-1"/><path fill="#f6fff0" d="M8 5h1v20H8M7 6h1v4H7m0 1h1v10H7M30 11h8v27h-8M6 12h1v2H6m3-2h6v3H9m19-2h1v25h-1m1-26h1v26h-1M9 15h1v12H9m1 0h18v1H10m1 0h17v1H11m1 0h16v9H12"/><path fill="#b5ead9" d="M37 4h1v34h-1M36 5h1v33h-1M35 6h1v32h-1M34 7h1v31h-1M33 8h1v30h-1M32 9h1v29h-1M27 14h1v1h-1m4-5h1v2h-1m0 2h1v24h-1M10 31h1v7h-1m1-8h3v8h-3M8 33h1v5H8m1-6h1v6H9m5-5h1v5h-1M6 35h1v3H6m1-4h1v4H7M4 37h1v1H4m1-2h1v2H5"/><path fill="#596e41" d="M8 6h1v4H8M9 7h1v5H9m1-4h1v6h-1m20-2h1v2h-1M7 12h1v2H7m22-1h1v8h-1M8 13h1v8H8m3-7h5v14h-5M28 17h1v8h-1m-9-7h8v10h-8m-1-9h1v15h-1M9 22h2v3H9m7-1h1v10h-1m1-12h1v12h-1m-7-9h1v2h-1m5 3h1v3h-1"/><path fill="#f5629b" d="M17 5h3v11h-3M16 6h1v8h-1m5-7h2v16h-2M20 6h1v15h-1m-8-9h3v15h-3m3-16h1v1h-1m0 2h1v12h-1m1-10h1v8h-1m-6-7h1v7h-1m1-9h1v11h-1"/><path fill="#f580ad" d="M23 6h2v1h-2M11 6h3v2h-3m3-1h1v4h-1M24 7h2v2h-2M12 8h2v2h-2M22 9h1v16h-1M25 9h1v1h-1m-4 0h1v13h-1M19 12h1v6h-1m1-7h1v10h-1m-2-6h1v4h-1"/><path fill="#ce145b" d="M21 11h1v12h-1m1-13h2v15h-2m2-14h2v18h-2M19 15h1v3h-1m1-6h1v9h-1m6-6h1v13h-1m1-11h1v10h-1"/><path fill="#465323" d="M9 8h1v2H9m1 0h1v2h-1m1-1h1v3h-1m8 7h1v13h-1M29 19h1v2h-1M18 22h1v11h-1m2-11h2v1h-2m8 0h1v2h-1m-8-1h1v10h-1m2-10h1v1h-1m-5 0h1v1h-1m4-1h1v9h-1m6-9h1v2h-1m-1-1h1v2h-1M10 26h1v1h-1m1 0h3v1h-3m6-1h1v5h-1m5-5h1v6h-1m2-6h2v2h-2m-1-1h1v2h-1M12 28h5v1h-5m2 0h3v1h-3m2 0h1v2h-1"/><path fill="#c7cee9" d="M36 13h1v25h-1m1-26h1v26h-1M34 15h1v23h-1m1-24h1v24h-1M32 17h1v21h-1m1-22h1v22h-1M30 21h1v17h-1m1-20h1v20h-1M28 27h1v11h-1m1-13h1v13h-1m-3-9h1v9h-1m1-10h1v10h-1m-4-5h1v5h-1m1-8h2v8h-2m-9-4h1v4h-1m7-4h1v4h-1m-8-3h1v3h-1m2-3h6v3h-6m-4-1h1v1h-1m1-2h1v2h-1"/><path fill="#799864" d="M29 15h1v2h-1M8 16h1v1H8m11-1h1v2h-1M9 17h1v5H9m8-4h1v4h-1m1-5h1v2h-1m2-1h1v3h-1m8-3h1v1h-1M16 21h1v3h-1m5-3h1v2h-1m-6 0h1v3h-1m7-3h1v1h-1"/><path fill="#e1c6dd" d="M36 21h1v17h-1m1-18h1v18h-1M34 23h1v15h-1m1-16h1v16h-1M32 25h1v13h-1m1-14h1v14h-1M30 27h1v11h-1m1-12h1v12h-1m-3-9h1v9h-1m1-10h1v10h-1m-3-7h1v7h-1m1-8h1v8h-1m-3-5h1v5h-1m1-6h1v6h-1m-3-3h1v3h-1m1-4h1v4h-1m-3-1h1v1h-1m1-2h1v2h-1"/><path fill="#513a22" d="M10 21h1v3h-1m1 0h1v2h-1m1-1h2v2h-2m15-3h1v1h-1m-4 0h1v2h-1m3-2h1v1h-1M14 26h1v1h-1m10-1h2v1h-2"/></svg>