<svg xmlns="http://www.w3.org/2000/svg" viewBox="0 0 32 32" shape-rendering="crispEdges"><path fill="#ff9aa3" d="M0 0h32v32H0"/><path fill="#ffb7b2" d="M9 0h23v32H9M3 6h6v26H3M2 7h1v25H2M1 8h1v24H1M0 9h1v23H0"/><path fill="#ffe9f1" d="M12 0h20v32H12M8 1h4v31H8M7 2h1v30H7M6 3h1v29H6"/><path fill="#ffdac0" d="M19 0h13v1H19m5 0h8v1h-8M3 15h29v17H3M2 16h1v16H2M1 17h1v15H1M0 18h1v14H0"/><path fill="#e3f0cb" d="M27 0h5v32h-5M26 1h1v31h-1M25 2h1v1h-1m0 2h1v27h-1M24 8h1v4h-1M5 22h20v10H5M3 24h1v8H3m1-9h1v9H4M1 26h1v6H1m1-7h1v7H2M0 27h1v5H0"/><path fill="#f5a6c4" d="M12 1h7v31h-7M8 2h4v24H8M7 3h1v9H7M19 2h5v6h-5m5-5h1v2h-1"/><path fill="#f6fff0" d="M5 2h1v20H5M4 3h1v4H4M4 8h1v10H4M27 8h5v24h-5M3 9h1v2H3M26 9h1v23h-1M6 9h6v3H6m19-2h1v22h-1M6 12h1v12H6m1 0h18v1H7m1 0h17v1H8m1 0h16v6H9"/><path fill="#596e41" d="M5 3h1v4H5M6 4h1v5H6M7 5h1v6H7M27 9h1v2h-1M4 9h1v2H4m1-1h1v8H5m3-7h5v14H8M26 10h1v8h-1m-1-4h1v8h-1m-9-7h8v10h-8m-1-9h1v15h-1M6 19h2v3H6m7-1h1v10h-1m1-12h1v12h-1M7 22h1v2H7m5 3h1v3h-1"/><path fill="#f5629b" d="M14 2h3v11h-3M13 3h1v8h-1m4-8h1v15h-1M12 8h1v1h-1m6-5h2v16h-2M9 9h3v15H9m3-13h1v12h-1M8 12h1v11H8M7 14h1v7H7m6-8h1v8h-1"/><path fill="#f580ad" d="M20 3h2v1h-2M8 3h3v2H8m3-1h1v4h-1M21 4h2v2h-2M9 5h2v2H9M19 6h1v16h-1M22 6h1v1h-1M18 7h1v13h-1M16 9h1v6h-1m1-7h1v10h-1m-2-6h1v4h-1"/><path fill="#465323" d="M6 5h1v2H6M7 7h1v2H7m19 7h1v2h-1M8 8h1v3H8m7 8h1v11h-1m1-12h1v13h-1m1-12h8v1h-8m8 0h1v2h-1m-8-1h1v10h-1m2-10h6v1h-6m-5 0h1v1h-1m4-1h1v9h-1m6-9h1v2h-1m-1-1h1v2h-1M7 23h1v1H7m1 0h3v1H8m6-1h1v5h-1m5-5h1v6h-1m2-6h2v2h-2m-1-1h1v2h-1M9 25h5v1H9m2 0h3v1h-3m2 0h1v2h-1"/><path fill="#b5ead9" d="M31 5h1v27h-1M30 6h1v26h-1M29 7h1v25h-1M28 8h1v1h-1m0 2h1v21h-1M8 28h1v4H8m1-5h2v5H9M6 30h1v2H6m1-3h1v3H7m4-2h1v2h-1M5 31h1v1H5m7-1h1v1h-1"/><path fill="#ce145b" d="M19 7h2v14h-2M18 8h1v12h-1M21 8h2v16h-2M17 9h1v9h-1m-1-6h1v3h-1m7-3h1v11h-1m1-9h1v8h-1m-4-1h1v3h-1"/><path fill="#799864" d="M26 12h1v2h-1M5 13h1v1H5m11-1h1v2h-1M6 14h1v5H6m8-4h1v4h-1m1-5h1v2h-1m2-1h1v3h-1m8-3h1v1h-1M13 18h1v3h-1m5-3h1v2h-1m-6 0h1v3h-1m7-3h1v1h-1"/><path fill="#c7cee9" d="M30 15h1v17h-1m1-18h1v18h-1M28 17h1v15h-1m1-16h1v16h-1M26 22h1v10h-1m1-14h1v14h-1m-3-7h1v7h-1m1-8h1v8h-1m-4-5h2v5h-2m2-6h1v6h-1m-4-1h1v1h-1m1-2h1v2h-1"/><path fill="#513a22" d="M7 18h1v3H7m1 0h1v2H8m1-1h2v2H9m15-3h1v1h-1m-4 0h1v2h-1m3-2h1v1h-1M11 23h1v1h-1m10-1h2v1h-2"/><path fill="#e1c6dd" d="M30 24h1v8h-1m1-9h1v9h-1m-3-6h1v6h-1m1-7h1v7h-1m-3-4h1v4h-1m1-5h1v5h-1m-3-2h1v2h-1m1-3h1v3h-1m-2-1h1v1h-1"/></svg>